<?xml version="1.0" encoding="utf-8"?>
<!-- Generator: Adobe Illustrator 21.0.0, SVG Export Plug-In . SVG Version: 6.00 Build 0)  -->
<svg version="1.1" id="Ebene_1" xmlns="http://www.w3.org/2000/svg" xmlns:xlink="http://www.w3.org/1999/xlink" x="0px" y="0px"
	 viewBox="0 0 600 400.5" style="enable-background:new 0 0 600 400.5;" xml:space="preserve">
<style type="text/css">
	.st0{fill:none;stroke:#FFFFFF;stroke-width:9.4717;stroke-miterlimit:10;}
	.st1{fill:#FFFFFF;}
	.st2{fill:none;stroke:#FFFFFF;stroke-width:4;stroke-miterlimit:10;}
</style>
<g id="Ebene_1_1_">
	<g>
		<g>
			<path class="st0" d="M347.5,389.1c10.7,8.6,26.4,11.2,39.8,10.4c14.4-0.8,28-6.5,36.8-18.3c3.8-5.1,6.5-11.1,7.7-17.4
				c1.7-8.8-0.3-15.4-6.8-32.5c-3.9-10.3-7.1-18.1-9.7-24.1c12.5-4,20.6-16.5,18.6-29.9c-1.7-11.3-10.2-20-20.8-22.4
				c5.3-7.5,12.6-16.1,20.6-29.6c6.4-11,28.7-49.9,25.1-95.3c-1.1-14.3-4.6-49.4-36.6-81.1c-29.8-29.4-67.5-39.2-85.1-42.6
				c-49.4-9.5-83.5-2-105.5,3.9c-21.5,5.8-55.4,25.2-76,57.6c-22.9,35.9-10.5,74.5-2.2,100.5c14.5,45.4,33.6,63.6,46.4,84
				c-11,4.7-18,16.5-16.1,28.9c2.1,13.9,14.3,23.7,28,23.1c-7.3,20.5-36.8,29.2-33.6,53.8c0.3,2.1,4.2,27.9,29.7,37.7
				c13.8,5.3,30.9,4.4,43.9-1.2"/>
		</g>
		<g>
			<path class="st1" d="M211.9,40.3c-2.9-3.4-12-0.2-20.5,7s-13,15.7-10.2,19.1c2.9,3.4,12,0.2,20.5-7
				C210.2,52.2,214.8,43.7,211.9,40.3z M197.8,55.9c-4.3,3.7-8.7,5.4-9.9,4s1.3-5.5,5.6-9.1c4.3-3.7,8.7-5.4,9.9-4
				C204.6,48.2,202.1,52.2,197.8,55.9z"/>
		</g>
		<g>
			<path class="st1" d="M164.5,90.8c-2.6-1.4-7.5,2.9-10.9,9.4s-4.2,13-1.6,14.3s7.5-2.9,10.9-9.4C166.4,98.6,167.1,92.2,164.5,90.8
				z M159.7,104c-1.7,3.3-4,5.5-5.1,4.9s-0.6-3.7,1.2-7c1.7-3.3,4-5.5,5.1-4.9C162,97.5,161.4,100.7,159.7,104z"/>
		</g>
		<g>
			<path class="st1" d="M321.7,21.9c0.3-3.5-6.7-7-15.6-7.7s-16.3,1.5-16.6,5c-0.3,3.5,6.7,7,15.6,7.7
				C313.9,27.6,321.4,25.4,321.7,21.9z M304.8,22.8c-4.5-0.4-8-1.9-8-3.4c0.1-1.5,3.9-2.4,8.4-2s8,1.9,8,3.4
				C313.1,22.2,309.3,23.1,304.8,22.8z"/>
		</g>
		<g>
			<path class="st1" d="M294.6,61.1c1.1-5.1-5.9-8.5-15.6-7.6s-18.5,5.7-19.6,10.9c-1.1,5.1,5.9,8.5,15.6,7.6
				C284.8,71.1,293.6,66.2,294.6,61.1z M275.8,66c-4.9,0.4-8.5-0.9-8-3.1c0.4-2.1,4.8-4.2,9.7-4.7c4.9-0.4,8.5,0.9,8,3.1
				C285,63.5,280.7,65.5,275.8,66z"/>
		</g>
		<g>
			<path class="st1" d="M367.1,67.8c2.4-2.9-0.9-7.5-7.4-10.1c-6.5-2.7-13.7-2.5-16.1,0.4s0.9,7.5,7.4,10.1S364.7,70.6,367.1,67.8z
				 M353.5,64.5c-3.3-1.4-5.2-3.4-4.1-4.7c1-1.2,4.5-1.1,7.7,0.3c3.3,1.4,5.2,3.4,4.1,4.7C360.2,66,356.7,65.9,353.5,64.5z"/>
		</g>
		<g>
			<path class="st1" d="M448.5,129.7c3.7-0.4,4.6-5.9,1.9-12.4s-7.9-11.5-11.6-11.2s-4.6,5.9-1.9,12.4
				C439.5,125,444.8,130,448.5,129.7z M441.1,117.7c-1.4-3.3-1.1-6.1,0.4-6.2c1.6-0.1,3.9,2.4,5.3,5.7s1.1,6.1-0.4,6.2
				C444.8,123.6,442.5,121,441.1,117.7z"/>
		</g>
		<g>
			<path class="st1" d="M369,40.8c0.1-1.6-2.9-3.1-6.9-3.4c-3.9-0.4-7.2,0.6-7.4,2.2s2.9,3.1,6.9,3.4
				C365.6,43.3,368.9,42.3,369,40.8z M361.6,41.1c-2-0.1-3.6-0.8-3.5-1.5c0.1-0.6,1.7-1.1,3.7-0.9c2,0.1,3.6,0.8,3.5,1.5
				C365.2,40.9,363.6,41.3,361.6,41.1z"/>
		</g>
		<g>
			<path class="st1" d="M228,95.3c0.6-2.5-2.5-4-6.9-3.4s-8.5,3.2-9,5.6c-0.6,2.5,2.5,4,6.9,3.4S227.4,97.8,228,95.3z M219.4,98
				c-2.2,0.3-3.8-0.3-3.6-1.3c0.2-1.1,2.2-2.1,4.4-2.4c2.2-0.3,3.8,0.3,3.6,1.3C223.6,96.6,221.6,97.7,219.4,98z"/>
		</g>
		<g>
			<path class="st1" d="M266.4,23.6c-0.4-1.5-3.8-1.9-7.6-1c-3.8,0.9-6.6,2.9-6.2,4.4c0.4,1.5,3.8,1.9,7.6,1
				C264,27.1,266.8,25.1,266.4,23.6z M259.5,26.3c-1.9,0.5-3.7,0.4-3.8-0.3c-0.1-0.6,1.3-1.5,3.2-2s3.7-0.4,3.8,0.3
				C262.8,24.9,261.4,25.8,259.5,26.3z"/>
		</g>
		<g>
			<path class="st1" d="M414.1,91.5c1.3-0.9,0.6-4.2-1.4-7.5c-2.1-3.3-4.9-5.4-6.2-4.5c-1.3,0.9-0.6,4.2,1.4,7.5
				C410,90.3,412.8,92.3,414.1,91.5z M409.3,85.8c-1.1-1.6-1.5-3.3-0.9-3.7s1.9,0.7,2.9,2.4c1.1,1.6,1.5,3.3,0.9,3.7
				C411.7,88.5,410.4,87.5,409.3,85.8z"/>
		</g>
		<g>
			<path class="st1" d="M416.1,55.5c1-1.2-0.6-4.2-3.7-6.7c-3-2.5-6.3-3.6-7.3-2.4c-1,1.2,0.6,4.2,3.7,6.7
				C411.9,55.7,415.1,56.7,416.1,55.5z M409.8,51.6c-1.5-1.3-2.4-2.7-2-3.2s2,0.1,3.5,1.4c1.5,1.3,2.4,2.7,2,3.2
				C413,53.5,411.4,52.9,409.8,51.6z"/>
		</g>
		<g>
			<path class="st1" d="M213,279c-2.2,0.4-4.3-1.2-4.7-3.4c-0.4-2.2,1.2-4.3,3.4-4.7l0,0c-1.6-1-3.7-1.5-5.7-1.2
				c-4.6,0.7-7.7,4.9-7,9.5s4.9,7.7,9.5,7c4.4-0.6,7.5-4.6,7.1-9C215.1,278.2,214.2,278.9,213,279z"/>
		</g>
		<g>
			<path class="st1" d="M421,281.7c-0.1-0.3-0.1-0.6-0.1-0.8c-0.4,1.6-1.6,2.9-3.4,3.2c-2.2,0.4-4.3-1.2-4.7-3.4
				c-0.4-2.2,1.2-4.3,3.4-4.7c0.4-0.1,0.8-0.1,1.1,0c-1.6-1.1-3.7-1.6-5.9-1.4c-4.6,0.7-7.7,4.9-7,9.5s4.9,7.7,9.5,7
				C418.5,290.5,421.6,286.2,421,281.7z"/>
		</g>
		<g>
			<path class="st0" d="M346.2,387.9c1.6,1.2,3.2,2.4,4.9,3.6c9,5.9,19.8,9,30.6,9c15.8-0.1,33-6.3,42.6-19.5
				c2.4-3.4,4.9-7.2,6.2-11.2c2.3-7.1-4.1-7.7-9.5-5.1c-5.4,2.5-9.7,6.8-14.2,10.7c-7.1,6.1-16.1,11.2-25.7,8.5
				c-8.6-2.4-14.8-10-19.6-17.2c-6.8-10.3-12.5-22-22.4-29.7c-22.5-17.5-51.4-4.4-69.3,13.1c-8.8,8.7-18.2,17.7-29.3,23.4
				c-5.6,2.8-11.3,3.9-17.3,5c-4.2,0.8-8.7,1.6-12.1,4.2c-1,0.8-1.9,1.7-2.4,2.9c-0.7,1.7-0.5,3.7,0.3,5.4c2.1,4.9,7,7.9,12.3,8.2
				l7.2,0.4c1.3,0,2.6-0.1,3.8-0.1c9-0.6,17.7-3.4,25.7-7.6c15.7-8.4,32.5-15.9,50.4-17.5c8.2-0.7,16.7,0.1,24.1,3.8
				C337.4,380.6,341.7,384.4,346.2,387.9z"/>
		</g>
		<circle class="st2" cx="409.4" cy="281.3" r="25.2"/>
		<circle class="st2" cx="208.7" cy="277.7" r="25.2"/>
	</g>
</g>
</svg>
